M48
; DRILL file {KiCad 7.0.2-1.fc38} date mar 30 mag 2023, 17:38:39
; FORMAT={-:-/ absolute / inch / decimal}
; #@! TF.CreationDate,2023-05-30T17:38:39+02:00
; #@! TF.GenerationSoftware,Kicad,Pcbnew,7.0.2-1.fc38
; #@! TF.FileFunction,Plated,1,2,PTH
FMAT,2
INCH
; #@! TA.AperFunction,Plated,PTH,ViaDrill
T1C0.0157
; #@! TA.AperFunction,Plated,PTH,ComponentDrill
T2C0.0315
; #@! TA.AperFunction,Plated,PTH,ComponentDrill
T3C0.0394
; #@! TA.AperFunction,Plated,PTH,ComponentDrill
T4C0.0433
; #@! TA.AperFunction,Plated,PTH,ComponentDrill
T5C0.1181
%
G90
G05
T1
X2.9134Y-4.3701
X2.9921Y-4.1142
X3.3071Y-4.5079
X3.4055Y-4.3504
T2
X2.874Y-3.4685
X2.874Y-3.6181
X3.1969Y-4.2701
X3.1969Y-4.3701
X3.1969Y-4.4701
X3.1969Y-4.5701
X3.4969Y-4.2701
X3.4969Y-4.3701
X3.4969Y-4.4701
X3.4969Y-4.5701
T3
X2.689Y-3.7866
X2.689Y-3.8866
X2.689Y-3.9866
X2.689Y-4.0866
X3.0787Y-4.2701
X3.0787Y-4.3701
X3.0787Y-4.4701
X3.0787Y-4.5701
T4
X3.6811Y-4.2618
X3.6909Y-4.3996
X3.6909Y-4.5768
X3.9469Y-4.3996
X3.9469Y-4.5768
X4.0811Y-4.2618
T5
X3.0472Y-3.3346
X3.0472Y-4.8701
X3.6457Y-3.3346
X3.6457Y-4.8701
T0
M30
