%TF.GenerationSoftware,KiCad,Pcbnew,7.0.2-1.fc38*%
%TF.CreationDate,2023-05-30T17:38:37+02:00*%
%TF.ProjectId,Attiny_termometro,41747469-6e79-45f7-9465-726d6f6d6574,rev?*%
%TF.SameCoordinates,Original*%
%TF.FileFunction,Legend,Bot*%
%TF.FilePolarity,Positive*%
%FSLAX46Y46*%
G04 Gerber Fmt 4.6, Leading zero omitted, Abs format (unit mm)*
G04 Created by KiCad (PCBNEW 7.0.2-1.fc38) date 2023-05-30 17:38:37*
%MOMM*%
%LPD*%
G01*
G04 APERTURE LIST*
%ADD10C,0.150000*%
%ADD11C,0.120000*%
G04 APERTURE END LIST*
D10*
X77761904Y-87996666D02*
X77000000Y-87996666D01*
X77380952Y-88377619D02*
X77380952Y-87615714D01*
X92961904Y-87896666D02*
X92200000Y-87896666D01*
X78138095Y-119925238D02*
X78233333Y-119877619D01*
X78233333Y-119877619D02*
X78376190Y-119877619D01*
X78376190Y-119877619D02*
X78519047Y-119925238D01*
X78519047Y-119925238D02*
X78614285Y-120020476D01*
X78614285Y-120020476D02*
X78661904Y-120115714D01*
X78661904Y-120115714D02*
X78709523Y-120306190D01*
X78709523Y-120306190D02*
X78709523Y-120449047D01*
X78709523Y-120449047D02*
X78661904Y-120639523D01*
X78661904Y-120639523D02*
X78614285Y-120734761D01*
X78614285Y-120734761D02*
X78519047Y-120830000D01*
X78519047Y-120830000D02*
X78376190Y-120877619D01*
X78376190Y-120877619D02*
X78280952Y-120877619D01*
X78280952Y-120877619D02*
X78138095Y-120830000D01*
X78138095Y-120830000D02*
X78090476Y-120782380D01*
X78090476Y-120782380D02*
X78090476Y-120449047D01*
X78090476Y-120449047D02*
X78280952Y-120449047D01*
X77661904Y-120877619D02*
X77661904Y-119877619D01*
X77661904Y-119877619D02*
X77090476Y-120877619D01*
X77090476Y-120877619D02*
X77090476Y-119877619D01*
X76614285Y-120877619D02*
X76614285Y-119877619D01*
X76614285Y-119877619D02*
X76376190Y-119877619D01*
X76376190Y-119877619D02*
X76233333Y-119925238D01*
X76233333Y-119925238D02*
X76138095Y-120020476D01*
X76138095Y-120020476D02*
X76090476Y-120115714D01*
X76090476Y-120115714D02*
X76042857Y-120306190D01*
X76042857Y-120306190D02*
X76042857Y-120449047D01*
X76042857Y-120449047D02*
X76090476Y-120639523D01*
X76090476Y-120639523D02*
X76138095Y-120734761D01*
X76138095Y-120734761D02*
X76233333Y-120830000D01*
X76233333Y-120830000D02*
X76376190Y-120877619D01*
X76376190Y-120877619D02*
X76614285Y-120877619D01*
X69761904Y-125627619D02*
X69761904Y-124627619D01*
X69761904Y-124627619D02*
X69523809Y-124627619D01*
X69523809Y-124627619D02*
X69380952Y-124675238D01*
X69380952Y-124675238D02*
X69285714Y-124770476D01*
X69285714Y-124770476D02*
X69238095Y-124865714D01*
X69238095Y-124865714D02*
X69190476Y-125056190D01*
X69190476Y-125056190D02*
X69190476Y-125199047D01*
X69190476Y-125199047D02*
X69238095Y-125389523D01*
X69238095Y-125389523D02*
X69285714Y-125484761D01*
X69285714Y-125484761D02*
X69380952Y-125580000D01*
X69380952Y-125580000D02*
X69523809Y-125627619D01*
X69523809Y-125627619D02*
X69761904Y-125627619D01*
X68333333Y-125627619D02*
X68333333Y-125103809D01*
X68333333Y-125103809D02*
X68380952Y-125008571D01*
X68380952Y-125008571D02*
X68476190Y-124960952D01*
X68476190Y-124960952D02*
X68666666Y-124960952D01*
X68666666Y-124960952D02*
X68761904Y-125008571D01*
X68333333Y-125580000D02*
X68428571Y-125627619D01*
X68428571Y-125627619D02*
X68666666Y-125627619D01*
X68666666Y-125627619D02*
X68761904Y-125580000D01*
X68761904Y-125580000D02*
X68809523Y-125484761D01*
X68809523Y-125484761D02*
X68809523Y-125389523D01*
X68809523Y-125389523D02*
X68761904Y-125294285D01*
X68761904Y-125294285D02*
X68666666Y-125246666D01*
X68666666Y-125246666D02*
X68428571Y-125246666D01*
X68428571Y-125246666D02*
X68333333Y-125199047D01*
X67428571Y-125627619D02*
X67428571Y-124627619D01*
X67428571Y-125580000D02*
X67523809Y-125627619D01*
X67523809Y-125627619D02*
X67714285Y-125627619D01*
X67714285Y-125627619D02*
X67809523Y-125580000D01*
X67809523Y-125580000D02*
X67857142Y-125532380D01*
X67857142Y-125532380D02*
X67904761Y-125437142D01*
X67904761Y-125437142D02*
X67904761Y-125151428D01*
X67904761Y-125151428D02*
X67857142Y-125056190D01*
X67857142Y-125056190D02*
X67809523Y-125008571D01*
X67809523Y-125008571D02*
X67714285Y-124960952D01*
X67714285Y-124960952D02*
X67523809Y-124960952D01*
X67523809Y-124960952D02*
X67428571Y-125008571D01*
X66571428Y-125580000D02*
X66666666Y-125627619D01*
X66666666Y-125627619D02*
X66857142Y-125627619D01*
X66857142Y-125627619D02*
X66952380Y-125580000D01*
X66952380Y-125580000D02*
X66999999Y-125484761D01*
X66999999Y-125484761D02*
X66999999Y-125103809D01*
X66999999Y-125103809D02*
X66952380Y-125008571D01*
X66952380Y-125008571D02*
X66857142Y-124960952D01*
X66857142Y-124960952D02*
X66666666Y-124960952D01*
X66666666Y-124960952D02*
X66571428Y-125008571D01*
X66571428Y-125008571D02*
X66523809Y-125103809D01*
X66523809Y-125103809D02*
X66523809Y-125199047D01*
X66523809Y-125199047D02*
X66999999Y-125294285D01*
X66190475Y-124627619D02*
X65571428Y-124627619D01*
X65571428Y-124627619D02*
X65904761Y-125008571D01*
X65904761Y-125008571D02*
X65761904Y-125008571D01*
X65761904Y-125008571D02*
X65666666Y-125056190D01*
X65666666Y-125056190D02*
X65619047Y-125103809D01*
X65619047Y-125103809D02*
X65571428Y-125199047D01*
X65571428Y-125199047D02*
X65571428Y-125437142D01*
X65571428Y-125437142D02*
X65619047Y-125532380D01*
X65619047Y-125532380D02*
X65666666Y-125580000D01*
X65666666Y-125580000D02*
X65761904Y-125627619D01*
X65761904Y-125627619D02*
X66047618Y-125627619D01*
X66047618Y-125627619D02*
X66142856Y-125580000D01*
X66142856Y-125580000D02*
X66190475Y-125532380D01*
X64761904Y-125580000D02*
X64857142Y-125627619D01*
X64857142Y-125627619D02*
X65047618Y-125627619D01*
X65047618Y-125627619D02*
X65142856Y-125580000D01*
X65142856Y-125580000D02*
X65190475Y-125484761D01*
X65190475Y-125484761D02*
X65190475Y-125103809D01*
X65190475Y-125103809D02*
X65142856Y-125008571D01*
X65142856Y-125008571D02*
X65047618Y-124960952D01*
X65047618Y-124960952D02*
X64857142Y-124960952D01*
X64857142Y-124960952D02*
X64761904Y-125008571D01*
X64761904Y-125008571D02*
X64714285Y-125103809D01*
X64714285Y-125103809D02*
X64714285Y-125199047D01*
X64714285Y-125199047D02*
X65190475Y-125294285D01*
X93061904Y-120296666D02*
X92300000Y-120296666D01*
X92680952Y-120677619D02*
X92680952Y-119915714D01*
D11*
%TO.C,C1*%
X74500000Y-92300000D02*
X74500000Y-91500000D01*
X74900000Y-91900000D02*
X74100000Y-91900000D01*
X77080000Y-90000000D02*
X68920000Y-90000000D01*
X77080000Y-89960000D02*
X68920000Y-89960000D01*
X77080000Y-89920000D02*
X68920000Y-89920000D01*
X77079000Y-89880000D02*
X68921000Y-89880000D01*
X77077000Y-89840000D02*
X68923000Y-89840000D01*
X77076000Y-89800000D02*
X68924000Y-89800000D01*
X77074000Y-89760000D02*
X68926000Y-89760000D01*
X77071000Y-89720000D02*
X68929000Y-89720000D01*
X77068000Y-89680000D02*
X68932000Y-89680000D01*
X77065000Y-89640000D02*
X68935000Y-89640000D01*
X77061000Y-89600000D02*
X68939000Y-89600000D01*
X77057000Y-89560000D02*
X68943000Y-89560000D01*
X77052000Y-89520000D02*
X68948000Y-89520000D01*
X77048000Y-89480000D02*
X68952000Y-89480000D01*
X77042000Y-89440000D02*
X68958000Y-89440000D01*
X77037000Y-89400000D02*
X68963000Y-89400000D01*
X77030000Y-89360000D02*
X68970000Y-89360000D01*
X77024000Y-89320000D02*
X68976000Y-89320000D01*
X77017000Y-89279000D02*
X68983000Y-89279000D01*
X77010000Y-89239000D02*
X68990000Y-89239000D01*
X77002000Y-89199000D02*
X68998000Y-89199000D01*
X76994000Y-89159000D02*
X69006000Y-89159000D01*
X71960000Y-89119000D02*
X69015000Y-89119000D01*
X76985000Y-89119000D02*
X74040000Y-89119000D01*
X71960000Y-89079000D02*
X69024000Y-89079000D01*
X76976000Y-89079000D02*
X74040000Y-89079000D01*
X71960000Y-89039000D02*
X69033000Y-89039000D01*
X76967000Y-89039000D02*
X74040000Y-89039000D01*
X71960000Y-88999000D02*
X69043000Y-88999000D01*
X76957000Y-88999000D02*
X74040000Y-88999000D01*
X71960000Y-88959000D02*
X69053000Y-88959000D01*
X76947000Y-88959000D02*
X74040000Y-88959000D01*
X71960000Y-88919000D02*
X69064000Y-88919000D01*
X76936000Y-88919000D02*
X74040000Y-88919000D01*
X71960000Y-88879000D02*
X69075000Y-88879000D01*
X76925000Y-88879000D02*
X74040000Y-88879000D01*
X71960000Y-88839000D02*
X69086000Y-88839000D01*
X76914000Y-88839000D02*
X74040000Y-88839000D01*
X71960000Y-88799000D02*
X69098000Y-88799000D01*
X76902000Y-88799000D02*
X74040000Y-88799000D01*
X71960000Y-88759000D02*
X69111000Y-88759000D01*
X76889000Y-88759000D02*
X74040000Y-88759000D01*
X71960000Y-88719000D02*
X69123000Y-88719000D01*
X76877000Y-88719000D02*
X74040000Y-88719000D01*
X71960000Y-88679000D02*
X69137000Y-88679000D01*
X76863000Y-88679000D02*
X74040000Y-88679000D01*
X71960000Y-88639000D02*
X69150000Y-88639000D01*
X76850000Y-88639000D02*
X74040000Y-88639000D01*
X71960000Y-88599000D02*
X69165000Y-88599000D01*
X76835000Y-88599000D02*
X74040000Y-88599000D01*
X71960000Y-88559000D02*
X69179000Y-88559000D01*
X76821000Y-88559000D02*
X74040000Y-88559000D01*
X71960000Y-88519000D02*
X69195000Y-88519000D01*
X76805000Y-88519000D02*
X74040000Y-88519000D01*
X71960000Y-88479000D02*
X69210000Y-88479000D01*
X76790000Y-88479000D02*
X74040000Y-88479000D01*
X71960000Y-88439000D02*
X69226000Y-88439000D01*
X76774000Y-88439000D02*
X74040000Y-88439000D01*
X71960000Y-88399000D02*
X69243000Y-88399000D01*
X76757000Y-88399000D02*
X74040000Y-88399000D01*
X71960000Y-88359000D02*
X69260000Y-88359000D01*
X76740000Y-88359000D02*
X74040000Y-88359000D01*
X71960000Y-88319000D02*
X69278000Y-88319000D01*
X76722000Y-88319000D02*
X74040000Y-88319000D01*
X71960000Y-88279000D02*
X69296000Y-88279000D01*
X76704000Y-88279000D02*
X74040000Y-88279000D01*
X71960000Y-88239000D02*
X69314000Y-88239000D01*
X76686000Y-88239000D02*
X74040000Y-88239000D01*
X71960000Y-88199000D02*
X69334000Y-88199000D01*
X76666000Y-88199000D02*
X74040000Y-88199000D01*
X71960000Y-88159000D02*
X69353000Y-88159000D01*
X76647000Y-88159000D02*
X74040000Y-88159000D01*
X71960000Y-88119000D02*
X69373000Y-88119000D01*
X76627000Y-88119000D02*
X74040000Y-88119000D01*
X71960000Y-88079000D02*
X69394000Y-88079000D01*
X76606000Y-88079000D02*
X74040000Y-88079000D01*
X71960000Y-88039000D02*
X69416000Y-88039000D01*
X76584000Y-88039000D02*
X74040000Y-88039000D01*
X71960000Y-87999000D02*
X69438000Y-87999000D01*
X76562000Y-87999000D02*
X74040000Y-87999000D01*
X71960000Y-87959000D02*
X69460000Y-87959000D01*
X76540000Y-87959000D02*
X74040000Y-87959000D01*
X71960000Y-87919000D02*
X69483000Y-87919000D01*
X76517000Y-87919000D02*
X74040000Y-87919000D01*
X71960000Y-87879000D02*
X69507000Y-87879000D01*
X76493000Y-87879000D02*
X74040000Y-87879000D01*
X71960000Y-87839000D02*
X69531000Y-87839000D01*
X76469000Y-87839000D02*
X74040000Y-87839000D01*
X71960000Y-87799000D02*
X69556000Y-87799000D01*
X76444000Y-87799000D02*
X74040000Y-87799000D01*
X71960000Y-87759000D02*
X69582000Y-87759000D01*
X76418000Y-87759000D02*
X74040000Y-87759000D01*
X71960000Y-87719000D02*
X69608000Y-87719000D01*
X76392000Y-87719000D02*
X74040000Y-87719000D01*
X71960000Y-87679000D02*
X69635000Y-87679000D01*
X76365000Y-87679000D02*
X74040000Y-87679000D01*
X71960000Y-87639000D02*
X69662000Y-87639000D01*
X76338000Y-87639000D02*
X74040000Y-87639000D01*
X71960000Y-87599000D02*
X69691000Y-87599000D01*
X76309000Y-87599000D02*
X74040000Y-87599000D01*
X71960000Y-87559000D02*
X69720000Y-87559000D01*
X76280000Y-87559000D02*
X74040000Y-87559000D01*
X71960000Y-87519000D02*
X69750000Y-87519000D01*
X76250000Y-87519000D02*
X74040000Y-87519000D01*
X71960000Y-87479000D02*
X69780000Y-87479000D01*
X76220000Y-87479000D02*
X74040000Y-87479000D01*
X71960000Y-87439000D02*
X69811000Y-87439000D01*
X76189000Y-87439000D02*
X74040000Y-87439000D01*
X71960000Y-87399000D02*
X69844000Y-87399000D01*
X76156000Y-87399000D02*
X74040000Y-87399000D01*
X71960000Y-87359000D02*
X69876000Y-87359000D01*
X76124000Y-87359000D02*
X74040000Y-87359000D01*
X71960000Y-87319000D02*
X69910000Y-87319000D01*
X76090000Y-87319000D02*
X74040000Y-87319000D01*
X71960000Y-87279000D02*
X69945000Y-87279000D01*
X76055000Y-87279000D02*
X74040000Y-87279000D01*
X71960000Y-87239000D02*
X69981000Y-87239000D01*
X76019000Y-87239000D02*
X74040000Y-87239000D01*
X71960000Y-87199000D02*
X70017000Y-87199000D01*
X75983000Y-87199000D02*
X74040000Y-87199000D01*
X71960000Y-87159000D02*
X70055000Y-87159000D01*
X75945000Y-87159000D02*
X74040000Y-87159000D01*
X71960000Y-87119000D02*
X70093000Y-87119000D01*
X75907000Y-87119000D02*
X74040000Y-87119000D01*
X71960000Y-87079000D02*
X70133000Y-87079000D01*
X75867000Y-87079000D02*
X74040000Y-87079000D01*
X75826000Y-87039000D02*
X70174000Y-87039000D01*
X75784000Y-86999000D02*
X70216000Y-86999000D01*
X75741000Y-86959000D02*
X70259000Y-86959000D01*
X75697000Y-86919000D02*
X70303000Y-86919000D01*
X75651000Y-86879000D02*
X70349000Y-86879000D01*
X75604000Y-86839000D02*
X70396000Y-86839000D01*
X75556000Y-86799000D02*
X70444000Y-86799000D01*
X75505000Y-86759000D02*
X70495000Y-86759000D01*
X75454000Y-86719000D02*
X70546000Y-86719000D01*
X75400000Y-86679000D02*
X70600000Y-86679000D01*
X75345000Y-86639000D02*
X70655000Y-86639000D01*
X75287000Y-86599000D02*
X70713000Y-86599000D01*
X75228000Y-86559000D02*
X70772000Y-86559000D01*
X75166000Y-86519000D02*
X70834000Y-86519000D01*
X75102000Y-86479000D02*
X70898000Y-86479000D01*
X75034000Y-86439000D02*
X70966000Y-86439000D01*
X74964000Y-86399000D02*
X71036000Y-86399000D01*
X74890000Y-86359000D02*
X71110000Y-86359000D01*
X74813000Y-86319000D02*
X71187000Y-86319000D01*
X74731000Y-86279000D02*
X71269000Y-86279000D01*
X74645000Y-86239000D02*
X71355000Y-86239000D01*
X74552000Y-86199000D02*
X71448000Y-86199000D01*
X74453000Y-86159000D02*
X71547000Y-86159000D01*
X74346000Y-86119000D02*
X71654000Y-86119000D01*
X74229000Y-86079000D02*
X71771000Y-86079000D01*
X74098000Y-86039000D02*
X71902000Y-86039000D01*
X73948000Y-85999000D02*
X72052000Y-85999000D01*
X73768000Y-85959000D02*
X72232000Y-85959000D01*
X73533000Y-85919000D02*
X72467000Y-85919000D01*
X77120000Y-90000000D02*
G75*
G03*
X77120000Y-90000000I-4120000J0D01*
G01*
%TD*%
M02*
