%TF.GenerationSoftware,KiCad,Pcbnew,7.0.2-1.fc38*%
%TF.CreationDate,2023-05-30T17:38:37+02:00*%
%TF.ProjectId,Attiny_termometro,41747469-6e79-45f7-9465-726d6f6d6574,rev?*%
%TF.SameCoordinates,Original*%
%TF.FileFunction,Legend,Top*%
%TF.FilePolarity,Positive*%
%FSLAX46Y46*%
G04 Gerber Fmt 4.6, Leading zero omitted, Abs format (unit mm)*
G04 Created by KiCad (PCBNEW 7.0.2-1.fc38) date 2023-05-30 17:38:37*
%MOMM*%
%LPD*%
G01*
G04 APERTURE LIST*
%ADD10C,0.300000*%
%ADD11C,0.500000*%
%ADD12C,1.075000*%
%ADD13C,0.150000*%
%ADD14C,0.100000*%
%ADD15C,0.120000*%
G04 APERTURE END LIST*
D10*
X107830952Y-123000000D02*
G75*
G03*
X107830952Y-123000000I-5830952J0D01*
G01*
X94000000Y-69000000D02*
G75*
G03*
X94000000Y-69000000I-3000000J0D01*
G01*
X106403124Y-94000000D02*
G75*
G03*
X106403124Y-94000000I-6403124J0D01*
G01*
X76627850Y-62552044D02*
G75*
G03*
X70690000Y-70440000I-3627850J-3447956D01*
G01*
D11*
X85000000Y-81000000D02*
X85004012Y-85178838D01*
D10*
X99288184Y-70446470D02*
G75*
G03*
X93380001Y-62550001I-2288184J4446470D01*
G01*
D12*
X90537500Y-68000000D02*
G75*
G03*
X90537500Y-68000000I-537500J0D01*
G01*
D11*
X88071849Y-78793681D02*
G75*
G03*
X81942872Y-78773293I-3067849J-1000019D01*
G01*
X80004014Y-81793674D02*
G75*
G03*
X90004010Y-81793674I4999998J2000000D01*
G01*
D10*
X82000000Y-69000000D02*
G75*
G03*
X82000000Y-69000000I-3000000J0D01*
G01*
X76000000Y-96000000D02*
X72000000Y-92000000D01*
X98000000Y-100000000D02*
X102000000Y-96000000D01*
X76618087Y-62537528D02*
G75*
G03*
X70690001Y-70440000I8381913J-12462472D01*
G01*
D12*
X78537500Y-68000000D02*
G75*
G03*
X78537500Y-68000000I-537500J0D01*
G01*
D10*
X72000000Y-100000000D02*
X68000000Y-96000000D01*
D11*
X81942872Y-78773293D02*
G75*
G03*
X88071870Y-78793674I3067858J1000003D01*
G01*
D10*
X76403124Y-94000000D02*
G75*
G03*
X76403124Y-94000000I-6403124J0D01*
G01*
X99298983Y-70443030D02*
G75*
G03*
X93380001Y-62550001I-14298983J-4556970D01*
G01*
X94000000Y-96000000D02*
X98000000Y-92000000D01*
X73830952Y-123000000D02*
G75*
G03*
X73830952Y-123000000I-5830952J0D01*
G01*
D13*
%TO.C,Display1*%
X73962619Y-102428571D02*
X72962619Y-102428571D01*
X72962619Y-102428571D02*
X72962619Y-102190476D01*
X72962619Y-102190476D02*
X73010238Y-102047619D01*
X73010238Y-102047619D02*
X73105476Y-101952381D01*
X73105476Y-101952381D02*
X73200714Y-101904762D01*
X73200714Y-101904762D02*
X73391190Y-101857143D01*
X73391190Y-101857143D02*
X73534047Y-101857143D01*
X73534047Y-101857143D02*
X73724523Y-101904762D01*
X73724523Y-101904762D02*
X73819761Y-101952381D01*
X73819761Y-101952381D02*
X73915000Y-102047619D01*
X73915000Y-102047619D02*
X73962619Y-102190476D01*
X73962619Y-102190476D02*
X73962619Y-102428571D01*
X73962619Y-101428571D02*
X73295952Y-101428571D01*
X72962619Y-101428571D02*
X73010238Y-101476190D01*
X73010238Y-101476190D02*
X73057857Y-101428571D01*
X73057857Y-101428571D02*
X73010238Y-101380952D01*
X73010238Y-101380952D02*
X72962619Y-101428571D01*
X72962619Y-101428571D02*
X73057857Y-101428571D01*
X73915000Y-101000000D02*
X73962619Y-100904762D01*
X73962619Y-100904762D02*
X73962619Y-100714286D01*
X73962619Y-100714286D02*
X73915000Y-100619048D01*
X73915000Y-100619048D02*
X73819761Y-100571429D01*
X73819761Y-100571429D02*
X73772142Y-100571429D01*
X73772142Y-100571429D02*
X73676904Y-100619048D01*
X73676904Y-100619048D02*
X73629285Y-100714286D01*
X73629285Y-100714286D02*
X73629285Y-100857143D01*
X73629285Y-100857143D02*
X73581666Y-100952381D01*
X73581666Y-100952381D02*
X73486428Y-101000000D01*
X73486428Y-101000000D02*
X73438809Y-101000000D01*
X73438809Y-101000000D02*
X73343571Y-100952381D01*
X73343571Y-100952381D02*
X73295952Y-100857143D01*
X73295952Y-100857143D02*
X73295952Y-100714286D01*
X73295952Y-100714286D02*
X73343571Y-100619048D01*
X73295952Y-100142857D02*
X74295952Y-100142857D01*
X73343571Y-100142857D02*
X73295952Y-100047619D01*
X73295952Y-100047619D02*
X73295952Y-99857143D01*
X73295952Y-99857143D02*
X73343571Y-99761905D01*
X73343571Y-99761905D02*
X73391190Y-99714286D01*
X73391190Y-99714286D02*
X73486428Y-99666667D01*
X73486428Y-99666667D02*
X73772142Y-99666667D01*
X73772142Y-99666667D02*
X73867380Y-99714286D01*
X73867380Y-99714286D02*
X73915000Y-99761905D01*
X73915000Y-99761905D02*
X73962619Y-99857143D01*
X73962619Y-99857143D02*
X73962619Y-100047619D01*
X73962619Y-100047619D02*
X73915000Y-100142857D01*
X73962619Y-99095238D02*
X73915000Y-99190476D01*
X73915000Y-99190476D02*
X73819761Y-99238095D01*
X73819761Y-99238095D02*
X72962619Y-99238095D01*
X73962619Y-98285714D02*
X73438809Y-98285714D01*
X73438809Y-98285714D02*
X73343571Y-98333333D01*
X73343571Y-98333333D02*
X73295952Y-98428571D01*
X73295952Y-98428571D02*
X73295952Y-98619047D01*
X73295952Y-98619047D02*
X73343571Y-98714285D01*
X73915000Y-98285714D02*
X73962619Y-98380952D01*
X73962619Y-98380952D02*
X73962619Y-98619047D01*
X73962619Y-98619047D02*
X73915000Y-98714285D01*
X73915000Y-98714285D02*
X73819761Y-98761904D01*
X73819761Y-98761904D02*
X73724523Y-98761904D01*
X73724523Y-98761904D02*
X73629285Y-98714285D01*
X73629285Y-98714285D02*
X73581666Y-98619047D01*
X73581666Y-98619047D02*
X73581666Y-98380952D01*
X73581666Y-98380952D02*
X73534047Y-98285714D01*
X73295952Y-97904761D02*
X73962619Y-97666666D01*
X73295952Y-97428571D02*
X73962619Y-97666666D01*
X73962619Y-97666666D02*
X74200714Y-97761904D01*
X74200714Y-97761904D02*
X74248333Y-97809523D01*
X74248333Y-97809523D02*
X74295952Y-97904761D01*
X73962619Y-96523809D02*
X73962619Y-97095237D01*
X73962619Y-96809523D02*
X72962619Y-96809523D01*
X72962619Y-96809523D02*
X73105476Y-96904761D01*
X73105476Y-96904761D02*
X73200714Y-96999999D01*
X73200714Y-96999999D02*
X73248333Y-97095237D01*
D14*
X70409523Y-103440190D02*
X70333333Y-103402095D01*
X70333333Y-103402095D02*
X70219047Y-103402095D01*
X70219047Y-103402095D02*
X70104761Y-103440190D01*
X70104761Y-103440190D02*
X70028571Y-103516380D01*
X70028571Y-103516380D02*
X69990476Y-103592571D01*
X69990476Y-103592571D02*
X69952380Y-103744952D01*
X69952380Y-103744952D02*
X69952380Y-103859238D01*
X69952380Y-103859238D02*
X69990476Y-104011619D01*
X69990476Y-104011619D02*
X70028571Y-104087809D01*
X70028571Y-104087809D02*
X70104761Y-104164000D01*
X70104761Y-104164000D02*
X70219047Y-104202095D01*
X70219047Y-104202095D02*
X70295238Y-104202095D01*
X70295238Y-104202095D02*
X70409523Y-104164000D01*
X70409523Y-104164000D02*
X70447619Y-104125904D01*
X70447619Y-104125904D02*
X70447619Y-103859238D01*
X70447619Y-103859238D02*
X70295238Y-103859238D01*
X70790476Y-104202095D02*
X70790476Y-103402095D01*
X70790476Y-103402095D02*
X71247619Y-104202095D01*
X71247619Y-104202095D02*
X71247619Y-103402095D01*
X71628571Y-104202095D02*
X71628571Y-103402095D01*
X71628571Y-103402095D02*
X71819047Y-103402095D01*
X71819047Y-103402095D02*
X71933333Y-103440190D01*
X71933333Y-103440190D02*
X72009523Y-103516380D01*
X72009523Y-103516380D02*
X72047618Y-103592571D01*
X72047618Y-103592571D02*
X72085714Y-103744952D01*
X72085714Y-103744952D02*
X72085714Y-103859238D01*
X72085714Y-103859238D02*
X72047618Y-104011619D01*
X72047618Y-104011619D02*
X72009523Y-104087809D01*
X72009523Y-104087809D02*
X71933333Y-104164000D01*
X71933333Y-104164000D02*
X71819047Y-104202095D01*
X71819047Y-104202095D02*
X71628571Y-104202095D01*
X70052380Y-99164000D02*
X70166666Y-99202095D01*
X70166666Y-99202095D02*
X70357142Y-99202095D01*
X70357142Y-99202095D02*
X70433333Y-99164000D01*
X70433333Y-99164000D02*
X70471428Y-99125904D01*
X70471428Y-99125904D02*
X70509523Y-99049714D01*
X70509523Y-99049714D02*
X70509523Y-98973523D01*
X70509523Y-98973523D02*
X70471428Y-98897333D01*
X70471428Y-98897333D02*
X70433333Y-98859238D01*
X70433333Y-98859238D02*
X70357142Y-98821142D01*
X70357142Y-98821142D02*
X70204761Y-98783047D01*
X70204761Y-98783047D02*
X70128571Y-98744952D01*
X70128571Y-98744952D02*
X70090476Y-98706857D01*
X70090476Y-98706857D02*
X70052380Y-98630666D01*
X70052380Y-98630666D02*
X70052380Y-98554476D01*
X70052380Y-98554476D02*
X70090476Y-98478285D01*
X70090476Y-98478285D02*
X70128571Y-98440190D01*
X70128571Y-98440190D02*
X70204761Y-98402095D01*
X70204761Y-98402095D02*
X70395238Y-98402095D01*
X70395238Y-98402095D02*
X70509523Y-98440190D01*
X71309524Y-99125904D02*
X71271428Y-99164000D01*
X71271428Y-99164000D02*
X71157143Y-99202095D01*
X71157143Y-99202095D02*
X71080952Y-99202095D01*
X71080952Y-99202095D02*
X70966666Y-99164000D01*
X70966666Y-99164000D02*
X70890476Y-99087809D01*
X70890476Y-99087809D02*
X70852381Y-99011619D01*
X70852381Y-99011619D02*
X70814285Y-98859238D01*
X70814285Y-98859238D02*
X70814285Y-98744952D01*
X70814285Y-98744952D02*
X70852381Y-98592571D01*
X70852381Y-98592571D02*
X70890476Y-98516380D01*
X70890476Y-98516380D02*
X70966666Y-98440190D01*
X70966666Y-98440190D02*
X71080952Y-98402095D01*
X71080952Y-98402095D02*
X71157143Y-98402095D01*
X71157143Y-98402095D02*
X71271428Y-98440190D01*
X71271428Y-98440190D02*
X71309524Y-98478285D01*
X72033333Y-99202095D02*
X71652381Y-99202095D01*
X71652381Y-99202095D02*
X71652381Y-98402095D01*
X70052380Y-96564000D02*
X70166666Y-96602095D01*
X70166666Y-96602095D02*
X70357142Y-96602095D01*
X70357142Y-96602095D02*
X70433333Y-96564000D01*
X70433333Y-96564000D02*
X70471428Y-96525904D01*
X70471428Y-96525904D02*
X70509523Y-96449714D01*
X70509523Y-96449714D02*
X70509523Y-96373523D01*
X70509523Y-96373523D02*
X70471428Y-96297333D01*
X70471428Y-96297333D02*
X70433333Y-96259238D01*
X70433333Y-96259238D02*
X70357142Y-96221142D01*
X70357142Y-96221142D02*
X70204761Y-96183047D01*
X70204761Y-96183047D02*
X70128571Y-96144952D01*
X70128571Y-96144952D02*
X70090476Y-96106857D01*
X70090476Y-96106857D02*
X70052380Y-96030666D01*
X70052380Y-96030666D02*
X70052380Y-95954476D01*
X70052380Y-95954476D02*
X70090476Y-95878285D01*
X70090476Y-95878285D02*
X70128571Y-95840190D01*
X70128571Y-95840190D02*
X70204761Y-95802095D01*
X70204761Y-95802095D02*
X70395238Y-95802095D01*
X70395238Y-95802095D02*
X70509523Y-95840190D01*
X70852381Y-96602095D02*
X70852381Y-95802095D01*
X70852381Y-95802095D02*
X71042857Y-95802095D01*
X71042857Y-95802095D02*
X71157143Y-95840190D01*
X71157143Y-95840190D02*
X71233333Y-95916380D01*
X71233333Y-95916380D02*
X71271428Y-95992571D01*
X71271428Y-95992571D02*
X71309524Y-96144952D01*
X71309524Y-96144952D02*
X71309524Y-96259238D01*
X71309524Y-96259238D02*
X71271428Y-96411619D01*
X71271428Y-96411619D02*
X71233333Y-96487809D01*
X71233333Y-96487809D02*
X71157143Y-96564000D01*
X71157143Y-96564000D02*
X71042857Y-96602095D01*
X71042857Y-96602095D02*
X70852381Y-96602095D01*
X71614285Y-96373523D02*
X71995238Y-96373523D01*
X71538095Y-96602095D02*
X71804762Y-95802095D01*
X71804762Y-95802095D02*
X72071428Y-96602095D01*
X70014285Y-100902095D02*
X70509523Y-100902095D01*
X70509523Y-100902095D02*
X70242857Y-101206857D01*
X70242857Y-101206857D02*
X70357142Y-101206857D01*
X70357142Y-101206857D02*
X70433333Y-101244952D01*
X70433333Y-101244952D02*
X70471428Y-101283047D01*
X70471428Y-101283047D02*
X70509523Y-101359238D01*
X70509523Y-101359238D02*
X70509523Y-101549714D01*
X70509523Y-101549714D02*
X70471428Y-101625904D01*
X70471428Y-101625904D02*
X70433333Y-101664000D01*
X70433333Y-101664000D02*
X70357142Y-101702095D01*
X70357142Y-101702095D02*
X70128571Y-101702095D01*
X70128571Y-101702095D02*
X70052380Y-101664000D01*
X70052380Y-101664000D02*
X70014285Y-101625904D01*
X70738095Y-100902095D02*
X71004762Y-101702095D01*
X71004762Y-101702095D02*
X71271428Y-100902095D01*
X71461904Y-100902095D02*
X71957142Y-100902095D01*
X71957142Y-100902095D02*
X71690476Y-101206857D01*
X71690476Y-101206857D02*
X71804761Y-101206857D01*
X71804761Y-101206857D02*
X71880952Y-101244952D01*
X71880952Y-101244952D02*
X71919047Y-101283047D01*
X71919047Y-101283047D02*
X71957142Y-101359238D01*
X71957142Y-101359238D02*
X71957142Y-101549714D01*
X71957142Y-101549714D02*
X71919047Y-101625904D01*
X71919047Y-101625904D02*
X71880952Y-101664000D01*
X71880952Y-101664000D02*
X71804761Y-101702095D01*
X71804761Y-101702095D02*
X71576190Y-101702095D01*
X71576190Y-101702095D02*
X71499999Y-101664000D01*
X71499999Y-101664000D02*
X71461904Y-101625904D01*
D13*
%TO.C,SW1*%
X95666667Y-114415000D02*
X95809524Y-114462619D01*
X95809524Y-114462619D02*
X96047619Y-114462619D01*
X96047619Y-114462619D02*
X96142857Y-114415000D01*
X96142857Y-114415000D02*
X96190476Y-114367380D01*
X96190476Y-114367380D02*
X96238095Y-114272142D01*
X96238095Y-114272142D02*
X96238095Y-114176904D01*
X96238095Y-114176904D02*
X96190476Y-114081666D01*
X96190476Y-114081666D02*
X96142857Y-114034047D01*
X96142857Y-114034047D02*
X96047619Y-113986428D01*
X96047619Y-113986428D02*
X95857143Y-113938809D01*
X95857143Y-113938809D02*
X95761905Y-113891190D01*
X95761905Y-113891190D02*
X95714286Y-113843571D01*
X95714286Y-113843571D02*
X95666667Y-113748333D01*
X95666667Y-113748333D02*
X95666667Y-113653095D01*
X95666667Y-113653095D02*
X95714286Y-113557857D01*
X95714286Y-113557857D02*
X95761905Y-113510238D01*
X95761905Y-113510238D02*
X95857143Y-113462619D01*
X95857143Y-113462619D02*
X96095238Y-113462619D01*
X96095238Y-113462619D02*
X96238095Y-113510238D01*
X96571429Y-113462619D02*
X96809524Y-114462619D01*
X96809524Y-114462619D02*
X97000000Y-113748333D01*
X97000000Y-113748333D02*
X97190476Y-114462619D01*
X97190476Y-114462619D02*
X97428572Y-113462619D01*
X98333333Y-114462619D02*
X97761905Y-114462619D01*
X98047619Y-114462619D02*
X98047619Y-113462619D01*
X98047619Y-113462619D02*
X97952381Y-113605476D01*
X97952381Y-113605476D02*
X97857143Y-113700714D01*
X97857143Y-113700714D02*
X97761905Y-113748333D01*
%TO.C,BMP280*%
X71938809Y-114928571D02*
X71986428Y-114785714D01*
X71986428Y-114785714D02*
X72034047Y-114738095D01*
X72034047Y-114738095D02*
X72129285Y-114690476D01*
X72129285Y-114690476D02*
X72272142Y-114690476D01*
X72272142Y-114690476D02*
X72367380Y-114738095D01*
X72367380Y-114738095D02*
X72415000Y-114785714D01*
X72415000Y-114785714D02*
X72462619Y-114880952D01*
X72462619Y-114880952D02*
X72462619Y-115261904D01*
X72462619Y-115261904D02*
X71462619Y-115261904D01*
X71462619Y-115261904D02*
X71462619Y-114928571D01*
X71462619Y-114928571D02*
X71510238Y-114833333D01*
X71510238Y-114833333D02*
X71557857Y-114785714D01*
X71557857Y-114785714D02*
X71653095Y-114738095D01*
X71653095Y-114738095D02*
X71748333Y-114738095D01*
X71748333Y-114738095D02*
X71843571Y-114785714D01*
X71843571Y-114785714D02*
X71891190Y-114833333D01*
X71891190Y-114833333D02*
X71938809Y-114928571D01*
X71938809Y-114928571D02*
X71938809Y-115261904D01*
X72462619Y-114261904D02*
X71462619Y-114261904D01*
X71462619Y-114261904D02*
X72176904Y-113928571D01*
X72176904Y-113928571D02*
X71462619Y-113595238D01*
X71462619Y-113595238D02*
X72462619Y-113595238D01*
X72462619Y-113119047D02*
X71462619Y-113119047D01*
X71462619Y-113119047D02*
X71462619Y-112738095D01*
X71462619Y-112738095D02*
X71510238Y-112642857D01*
X71510238Y-112642857D02*
X71557857Y-112595238D01*
X71557857Y-112595238D02*
X71653095Y-112547619D01*
X71653095Y-112547619D02*
X71795952Y-112547619D01*
X71795952Y-112547619D02*
X71891190Y-112595238D01*
X71891190Y-112595238D02*
X71938809Y-112642857D01*
X71938809Y-112642857D02*
X71986428Y-112738095D01*
X71986428Y-112738095D02*
X71986428Y-113119047D01*
X71557857Y-112166666D02*
X71510238Y-112119047D01*
X71510238Y-112119047D02*
X71462619Y-112023809D01*
X71462619Y-112023809D02*
X71462619Y-111785714D01*
X71462619Y-111785714D02*
X71510238Y-111690476D01*
X71510238Y-111690476D02*
X71557857Y-111642857D01*
X71557857Y-111642857D02*
X71653095Y-111595238D01*
X71653095Y-111595238D02*
X71748333Y-111595238D01*
X71748333Y-111595238D02*
X71891190Y-111642857D01*
X71891190Y-111642857D02*
X72462619Y-112214285D01*
X72462619Y-112214285D02*
X72462619Y-111595238D01*
X71891190Y-111023809D02*
X71843571Y-111119047D01*
X71843571Y-111119047D02*
X71795952Y-111166666D01*
X71795952Y-111166666D02*
X71700714Y-111214285D01*
X71700714Y-111214285D02*
X71653095Y-111214285D01*
X71653095Y-111214285D02*
X71557857Y-111166666D01*
X71557857Y-111166666D02*
X71510238Y-111119047D01*
X71510238Y-111119047D02*
X71462619Y-111023809D01*
X71462619Y-111023809D02*
X71462619Y-110833333D01*
X71462619Y-110833333D02*
X71510238Y-110738095D01*
X71510238Y-110738095D02*
X71557857Y-110690476D01*
X71557857Y-110690476D02*
X71653095Y-110642857D01*
X71653095Y-110642857D02*
X71700714Y-110642857D01*
X71700714Y-110642857D02*
X71795952Y-110690476D01*
X71795952Y-110690476D02*
X71843571Y-110738095D01*
X71843571Y-110738095D02*
X71891190Y-110833333D01*
X71891190Y-110833333D02*
X71891190Y-111023809D01*
X71891190Y-111023809D02*
X71938809Y-111119047D01*
X71938809Y-111119047D02*
X71986428Y-111166666D01*
X71986428Y-111166666D02*
X72081666Y-111214285D01*
X72081666Y-111214285D02*
X72272142Y-111214285D01*
X72272142Y-111214285D02*
X72367380Y-111166666D01*
X72367380Y-111166666D02*
X72415000Y-111119047D01*
X72415000Y-111119047D02*
X72462619Y-111023809D01*
X72462619Y-111023809D02*
X72462619Y-110833333D01*
X72462619Y-110833333D02*
X72415000Y-110738095D01*
X72415000Y-110738095D02*
X72367380Y-110690476D01*
X72367380Y-110690476D02*
X72272142Y-110642857D01*
X72272142Y-110642857D02*
X72081666Y-110642857D01*
X72081666Y-110642857D02*
X71986428Y-110690476D01*
X71986428Y-110690476D02*
X71938809Y-110738095D01*
X71938809Y-110738095D02*
X71891190Y-110833333D01*
X71462619Y-110023809D02*
X71462619Y-109928571D01*
X71462619Y-109928571D02*
X71510238Y-109833333D01*
X71510238Y-109833333D02*
X71557857Y-109785714D01*
X71557857Y-109785714D02*
X71653095Y-109738095D01*
X71653095Y-109738095D02*
X71843571Y-109690476D01*
X71843571Y-109690476D02*
X72081666Y-109690476D01*
X72081666Y-109690476D02*
X72272142Y-109738095D01*
X72272142Y-109738095D02*
X72367380Y-109785714D01*
X72367380Y-109785714D02*
X72415000Y-109833333D01*
X72415000Y-109833333D02*
X72462619Y-109928571D01*
X72462619Y-109928571D02*
X72462619Y-110023809D01*
X72462619Y-110023809D02*
X72415000Y-110119047D01*
X72415000Y-110119047D02*
X72367380Y-110166666D01*
X72367380Y-110166666D02*
X72272142Y-110214285D01*
X72272142Y-110214285D02*
X72081666Y-110261904D01*
X72081666Y-110261904D02*
X71843571Y-110261904D01*
X71843571Y-110261904D02*
X71653095Y-110214285D01*
X71653095Y-110214285D02*
X71557857Y-110166666D01*
X71557857Y-110166666D02*
X71510238Y-110119047D01*
X71510238Y-110119047D02*
X71462619Y-110023809D01*
D14*
X74976190Y-115562095D02*
X75242857Y-116362095D01*
X75242857Y-116362095D02*
X75509523Y-115562095D01*
X75776190Y-116362095D02*
X75776190Y-115562095D01*
X76157142Y-116362095D02*
X76157142Y-115562095D01*
X76157142Y-115562095D02*
X76614285Y-116362095D01*
X76614285Y-116362095D02*
X76614285Y-115562095D01*
X74752380Y-111424000D02*
X74866666Y-111462095D01*
X74866666Y-111462095D02*
X75057142Y-111462095D01*
X75057142Y-111462095D02*
X75133333Y-111424000D01*
X75133333Y-111424000D02*
X75171428Y-111385904D01*
X75171428Y-111385904D02*
X75209523Y-111309714D01*
X75209523Y-111309714D02*
X75209523Y-111233523D01*
X75209523Y-111233523D02*
X75171428Y-111157333D01*
X75171428Y-111157333D02*
X75133333Y-111119238D01*
X75133333Y-111119238D02*
X75057142Y-111081142D01*
X75057142Y-111081142D02*
X74904761Y-111043047D01*
X74904761Y-111043047D02*
X74828571Y-111004952D01*
X74828571Y-111004952D02*
X74790476Y-110966857D01*
X74790476Y-110966857D02*
X74752380Y-110890666D01*
X74752380Y-110890666D02*
X74752380Y-110814476D01*
X74752380Y-110814476D02*
X74790476Y-110738285D01*
X74790476Y-110738285D02*
X74828571Y-110700190D01*
X74828571Y-110700190D02*
X74904761Y-110662095D01*
X74904761Y-110662095D02*
X75095238Y-110662095D01*
X75095238Y-110662095D02*
X75209523Y-110700190D01*
X76009524Y-111385904D02*
X75971428Y-111424000D01*
X75971428Y-111424000D02*
X75857143Y-111462095D01*
X75857143Y-111462095D02*
X75780952Y-111462095D01*
X75780952Y-111462095D02*
X75666666Y-111424000D01*
X75666666Y-111424000D02*
X75590476Y-111347809D01*
X75590476Y-111347809D02*
X75552381Y-111271619D01*
X75552381Y-111271619D02*
X75514285Y-111119238D01*
X75514285Y-111119238D02*
X75514285Y-111004952D01*
X75514285Y-111004952D02*
X75552381Y-110852571D01*
X75552381Y-110852571D02*
X75590476Y-110776380D01*
X75590476Y-110776380D02*
X75666666Y-110700190D01*
X75666666Y-110700190D02*
X75780952Y-110662095D01*
X75780952Y-110662095D02*
X75857143Y-110662095D01*
X75857143Y-110662095D02*
X75971428Y-110700190D01*
X75971428Y-110700190D02*
X76009524Y-110738285D01*
X76733333Y-111462095D02*
X76352381Y-111462095D01*
X76352381Y-111462095D02*
X76352381Y-110662095D01*
X74752380Y-108824000D02*
X74866666Y-108862095D01*
X74866666Y-108862095D02*
X75057142Y-108862095D01*
X75057142Y-108862095D02*
X75133333Y-108824000D01*
X75133333Y-108824000D02*
X75171428Y-108785904D01*
X75171428Y-108785904D02*
X75209523Y-108709714D01*
X75209523Y-108709714D02*
X75209523Y-108633523D01*
X75209523Y-108633523D02*
X75171428Y-108557333D01*
X75171428Y-108557333D02*
X75133333Y-108519238D01*
X75133333Y-108519238D02*
X75057142Y-108481142D01*
X75057142Y-108481142D02*
X74904761Y-108443047D01*
X74904761Y-108443047D02*
X74828571Y-108404952D01*
X74828571Y-108404952D02*
X74790476Y-108366857D01*
X74790476Y-108366857D02*
X74752380Y-108290666D01*
X74752380Y-108290666D02*
X74752380Y-108214476D01*
X74752380Y-108214476D02*
X74790476Y-108138285D01*
X74790476Y-108138285D02*
X74828571Y-108100190D01*
X74828571Y-108100190D02*
X74904761Y-108062095D01*
X74904761Y-108062095D02*
X75095238Y-108062095D01*
X75095238Y-108062095D02*
X75209523Y-108100190D01*
X75552381Y-108862095D02*
X75552381Y-108062095D01*
X75552381Y-108062095D02*
X75742857Y-108062095D01*
X75742857Y-108062095D02*
X75857143Y-108100190D01*
X75857143Y-108100190D02*
X75933333Y-108176380D01*
X75933333Y-108176380D02*
X75971428Y-108252571D01*
X75971428Y-108252571D02*
X76009524Y-108404952D01*
X76009524Y-108404952D02*
X76009524Y-108519238D01*
X76009524Y-108519238D02*
X75971428Y-108671619D01*
X75971428Y-108671619D02*
X75933333Y-108747809D01*
X75933333Y-108747809D02*
X75857143Y-108824000D01*
X75857143Y-108824000D02*
X75742857Y-108862095D01*
X75742857Y-108862095D02*
X75552381Y-108862095D01*
X76314285Y-108633523D02*
X76695238Y-108633523D01*
X76238095Y-108862095D02*
X76504762Y-108062095D01*
X76504762Y-108062095D02*
X76771428Y-108862095D01*
X75109523Y-113200190D02*
X75033333Y-113162095D01*
X75033333Y-113162095D02*
X74919047Y-113162095D01*
X74919047Y-113162095D02*
X74804761Y-113200190D01*
X74804761Y-113200190D02*
X74728571Y-113276380D01*
X74728571Y-113276380D02*
X74690476Y-113352571D01*
X74690476Y-113352571D02*
X74652380Y-113504952D01*
X74652380Y-113504952D02*
X74652380Y-113619238D01*
X74652380Y-113619238D02*
X74690476Y-113771619D01*
X74690476Y-113771619D02*
X74728571Y-113847809D01*
X74728571Y-113847809D02*
X74804761Y-113924000D01*
X74804761Y-113924000D02*
X74919047Y-113962095D01*
X74919047Y-113962095D02*
X74995238Y-113962095D01*
X74995238Y-113962095D02*
X75109523Y-113924000D01*
X75109523Y-113924000D02*
X75147619Y-113885904D01*
X75147619Y-113885904D02*
X75147619Y-113619238D01*
X75147619Y-113619238D02*
X74995238Y-113619238D01*
X75490476Y-113962095D02*
X75490476Y-113162095D01*
X75490476Y-113162095D02*
X75947619Y-113962095D01*
X75947619Y-113962095D02*
X75947619Y-113162095D01*
X76328571Y-113962095D02*
X76328571Y-113162095D01*
X76328571Y-113162095D02*
X76519047Y-113162095D01*
X76519047Y-113162095D02*
X76633333Y-113200190D01*
X76633333Y-113200190D02*
X76709523Y-113276380D01*
X76709523Y-113276380D02*
X76747618Y-113352571D01*
X76747618Y-113352571D02*
X76785714Y-113504952D01*
X76785714Y-113504952D02*
X76785714Y-113619238D01*
X76785714Y-113619238D02*
X76747618Y-113771619D01*
X76747618Y-113771619D02*
X76709523Y-113847809D01*
X76709523Y-113847809D02*
X76633333Y-113924000D01*
X76633333Y-113924000D02*
X76519047Y-113962095D01*
X76519047Y-113962095D02*
X76328571Y-113962095D01*
D13*
%TO.C,D1*%
X98261905Y-108712619D02*
X98261905Y-107712619D01*
X98261905Y-107712619D02*
X98500000Y-107712619D01*
X98500000Y-107712619D02*
X98642857Y-107760238D01*
X98642857Y-107760238D02*
X98738095Y-107855476D01*
X98738095Y-107855476D02*
X98785714Y-107950714D01*
X98785714Y-107950714D02*
X98833333Y-108141190D01*
X98833333Y-108141190D02*
X98833333Y-108284047D01*
X98833333Y-108284047D02*
X98785714Y-108474523D01*
X98785714Y-108474523D02*
X98738095Y-108569761D01*
X98738095Y-108569761D02*
X98642857Y-108665000D01*
X98642857Y-108665000D02*
X98500000Y-108712619D01*
X98500000Y-108712619D02*
X98261905Y-108712619D01*
X99785714Y-108712619D02*
X99214286Y-108712619D01*
X99500000Y-108712619D02*
X99500000Y-107712619D01*
X99500000Y-107712619D02*
X99404762Y-107855476D01*
X99404762Y-107855476D02*
X99309524Y-107950714D01*
X99309524Y-107950714D02*
X99214286Y-107998333D01*
%TO.C,Attiny85*%
X85186904Y-115333333D02*
X85186904Y-114857143D01*
X85472619Y-115428571D02*
X84472619Y-115095238D01*
X84472619Y-115095238D02*
X85472619Y-114761905D01*
X84805952Y-114571428D02*
X84805952Y-114190476D01*
X84472619Y-114428571D02*
X85329761Y-114428571D01*
X85329761Y-114428571D02*
X85425000Y-114380952D01*
X85425000Y-114380952D02*
X85472619Y-114285714D01*
X85472619Y-114285714D02*
X85472619Y-114190476D01*
X84805952Y-113999999D02*
X84805952Y-113619047D01*
X84472619Y-113857142D02*
X85329761Y-113857142D01*
X85329761Y-113857142D02*
X85425000Y-113809523D01*
X85425000Y-113809523D02*
X85472619Y-113714285D01*
X85472619Y-113714285D02*
X85472619Y-113619047D01*
X85472619Y-113285713D02*
X84805952Y-113285713D01*
X84472619Y-113285713D02*
X84520238Y-113333332D01*
X84520238Y-113333332D02*
X84567857Y-113285713D01*
X84567857Y-113285713D02*
X84520238Y-113238094D01*
X84520238Y-113238094D02*
X84472619Y-113285713D01*
X84472619Y-113285713D02*
X84567857Y-113285713D01*
X84805952Y-112809523D02*
X85472619Y-112809523D01*
X84901190Y-112809523D02*
X84853571Y-112761904D01*
X84853571Y-112761904D02*
X84805952Y-112666666D01*
X84805952Y-112666666D02*
X84805952Y-112523809D01*
X84805952Y-112523809D02*
X84853571Y-112428571D01*
X84853571Y-112428571D02*
X84948809Y-112380952D01*
X84948809Y-112380952D02*
X85472619Y-112380952D01*
X84805952Y-111999999D02*
X85472619Y-111761904D01*
X84805952Y-111523809D02*
X85472619Y-111761904D01*
X85472619Y-111761904D02*
X85710714Y-111857142D01*
X85710714Y-111857142D02*
X85758333Y-111904761D01*
X85758333Y-111904761D02*
X85805952Y-111999999D01*
X84901190Y-110999999D02*
X84853571Y-111095237D01*
X84853571Y-111095237D02*
X84805952Y-111142856D01*
X84805952Y-111142856D02*
X84710714Y-111190475D01*
X84710714Y-111190475D02*
X84663095Y-111190475D01*
X84663095Y-111190475D02*
X84567857Y-111142856D01*
X84567857Y-111142856D02*
X84520238Y-111095237D01*
X84520238Y-111095237D02*
X84472619Y-110999999D01*
X84472619Y-110999999D02*
X84472619Y-110809523D01*
X84472619Y-110809523D02*
X84520238Y-110714285D01*
X84520238Y-110714285D02*
X84567857Y-110666666D01*
X84567857Y-110666666D02*
X84663095Y-110619047D01*
X84663095Y-110619047D02*
X84710714Y-110619047D01*
X84710714Y-110619047D02*
X84805952Y-110666666D01*
X84805952Y-110666666D02*
X84853571Y-110714285D01*
X84853571Y-110714285D02*
X84901190Y-110809523D01*
X84901190Y-110809523D02*
X84901190Y-110999999D01*
X84901190Y-110999999D02*
X84948809Y-111095237D01*
X84948809Y-111095237D02*
X84996428Y-111142856D01*
X84996428Y-111142856D02*
X85091666Y-111190475D01*
X85091666Y-111190475D02*
X85282142Y-111190475D01*
X85282142Y-111190475D02*
X85377380Y-111142856D01*
X85377380Y-111142856D02*
X85425000Y-111095237D01*
X85425000Y-111095237D02*
X85472619Y-110999999D01*
X85472619Y-110999999D02*
X85472619Y-110809523D01*
X85472619Y-110809523D02*
X85425000Y-110714285D01*
X85425000Y-110714285D02*
X85377380Y-110666666D01*
X85377380Y-110666666D02*
X85282142Y-110619047D01*
X85282142Y-110619047D02*
X85091666Y-110619047D01*
X85091666Y-110619047D02*
X84996428Y-110666666D01*
X84996428Y-110666666D02*
X84948809Y-110714285D01*
X84948809Y-110714285D02*
X84901190Y-110809523D01*
X84472619Y-109714285D02*
X84472619Y-110190475D01*
X84472619Y-110190475D02*
X84948809Y-110238094D01*
X84948809Y-110238094D02*
X84901190Y-110190475D01*
X84901190Y-110190475D02*
X84853571Y-110095237D01*
X84853571Y-110095237D02*
X84853571Y-109857142D01*
X84853571Y-109857142D02*
X84901190Y-109761904D01*
X84901190Y-109761904D02*
X84948809Y-109714285D01*
X84948809Y-109714285D02*
X85044047Y-109666666D01*
X85044047Y-109666666D02*
X85282142Y-109666666D01*
X85282142Y-109666666D02*
X85377380Y-109714285D01*
X85377380Y-109714285D02*
X85425000Y-109761904D01*
X85425000Y-109761904D02*
X85472619Y-109857142D01*
X85472619Y-109857142D02*
X85472619Y-110095237D01*
X85472619Y-110095237D02*
X85425000Y-110190475D01*
X85425000Y-110190475D02*
X85377380Y-110238094D01*
D15*
%TO.C,SW1*%
X100500000Y-114750000D02*
X100500000Y-113250000D01*
X99250000Y-110750000D02*
X94750000Y-110750000D01*
X94750000Y-117250000D02*
X99250000Y-117250000D01*
X93500000Y-113250000D02*
X93500000Y-114750000D01*
%TO.C,D1*%
X94840000Y-108250000D02*
X95860000Y-108250000D01*
X95860000Y-106780000D02*
X95860000Y-109720000D01*
X95860000Y-109720000D02*
X101300000Y-109720000D01*
X96640000Y-106780000D02*
X96640000Y-109720000D01*
X96760000Y-106780000D02*
X96760000Y-109720000D01*
X96880000Y-106780000D02*
X96880000Y-109720000D01*
X101300000Y-106780000D02*
X95860000Y-106780000D01*
X101300000Y-109720000D02*
X101300000Y-106780000D01*
X102320000Y-108250000D02*
X101300000Y-108250000D01*
%TO.C,Attiny85*%
X79870000Y-107070000D02*
X79870000Y-117470000D01*
X79870000Y-117470000D02*
X90150000Y-117470000D01*
X82360000Y-107130000D02*
X82360000Y-117410000D01*
X82360000Y-117410000D02*
X87660000Y-117410000D01*
X84010000Y-107130000D02*
X82360000Y-107130000D01*
X87660000Y-107130000D02*
X86010000Y-107130000D01*
X87660000Y-117410000D02*
X87660000Y-107130000D01*
X90150000Y-107070000D02*
X79870000Y-107070000D01*
X90150000Y-117470000D02*
X90150000Y-107070000D01*
X84010000Y-107130000D02*
G75*
G03*
X86010000Y-107130000I1000000J0D01*
G01*
%TD*%
M02*
